<?xml version="1.0" encoding="utf-8"?>
<!-- Generator: Adobe Illustrator 27.5.0, SVG Export Plug-In . SVG Version: 6.00 Build 0)  -->
<svg version="1.1" id="Capa_1" xmlns="http://www.w3.org/2000/svg" xmlns:xlink="http://www.w3.org/1999/xlink" x="0px" y="0px"
	 viewBox="0 0 2122 2122" style="enable-background:new 0 0 2122 2122;" xml:space="preserve">
<path style="fill:#CBE2F6;" d="M1183.144,1149.979V327.875c0-68.583-55.598-124.181-124.181-124.181
	c-68.584,0-124.182,55.598-124.182,124.181v322.121c12.915,124.875,35.946,248.581,67.583,368.915v-30.228h-1.148
	c-7.684,0-7.671-11.921,0-11.921h1.148v-41.263h-1.148c-3.233,0-5.961-2.727-5.961-5.96c0-3.22,2.74-5.96,5.961-5.96h1.148v-41.263
	h-1.148c-3.233,0-5.961-2.728-5.961-5.96c0-3.22,2.74-5.96,5.961-5.96h1.148v-41.263h-1.148c-3.233,0-5.961-2.728-5.961-5.96
	c0-3.221,2.74-5.96,5.961-5.96h1.148v-41.264h-1.148c-7.684,0-7.671-11.921,0-11.921h1.148v-41.263h-1.148
	c-3.233,0-5.961-2.728-5.961-5.96c0-3.221,2.74-5.96,5.961-5.96h1.148V669.58h-1.148c-3.233,0-5.961-2.728-5.961-5.96
	c0-3.222,2.74-5.96,5.961-5.96h1.148v-41.264h-1.148c-3.233,0-5.961-2.727-5.961-5.96c0-3.221,2.74-5.96,5.961-5.96h1.148v-41.263
	h-1.148c-7.684,0-7.671-11.921,0-11.921h1.148v-41.263h-1.148c-3.233,0-5.961-2.728-5.961-5.96c0-3.221,2.74-5.96,5.961-5.96h1.148
	v-41.263h-1.148c-3.233,0-5.961-2.728-5.961-5.96c0-3.221,2.74-5.96,5.961-5.96h1.148v-41.263h-1.148
	c-3.233,0-5.961-2.727-5.961-5.96c0-3.22,2.74-5.96,5.961-5.96h1.148v-41.263h-1.148c-7.684,0-7.671-11.921,0-11.921h1.148v-10.679
	c0-31.208,25.388-56.596,56.597-56.596c31.209,0,56.602,25.388,56.602,56.596v633.088h0.001v237.71l46.189,15.414
	c132.691,44.278,221.847,168.024,221.847,307.926c0,51.842-12.279,100.845-33.98,144.36v0.001
	c15.102,13.435,30.709,26.404,46.986,38.73c2.196,1.663,4.42,3.281,6.634,4.913c30.551-55.825,47.943-119.878,47.943-188.004
	C1451.184,1348.814,1338.873,1201.941,1183.144,1149.979z"/>
<path style="fill:#9BBAE3;" d="M1002.367,960.963h113.197V327.876c0-31.208-25.393-56.596-56.602-56.596
	c-31.209,0-56.597,25.388-56.597,56.596v10.679c20.787,0,41.576,0,62.363,0c7.683,0,7.671,11.921,0,11.921
	c-20.788,0-41.576,0-62.363,0v41.263c13.316,0,26.631,0,39.948,0c3.233,0,5.96,2.728,5.96,5.96c0,3.221-2.739,5.96-5.96,5.96
	c-13.316,0-26.632,0-39.948,0v41.263c13.316,0,26.631,0,39.948,0c3.233,0,5.96,2.728,5.96,5.96c0,3.221-2.739,5.96-5.96,5.96
	c-13.316,0-26.632,0-39.948,0v41.263c13.316,0,26.631,0,39.948,0c3.233,0,5.96,2.728,5.96,5.96c0,3.221-2.739,5.96-5.96,5.96
	c-13.316,0-26.632,0-39.948,0v41.263c20.787,0,41.576,0,62.363,0c7.683,0,7.671,11.921,0,11.921c-20.788,0-41.576,0-62.363,0v41.263
	c13.316,0,26.631,0,39.948,0c3.233,0,5.96,2.728,5.96,5.96c0,3.222-2.739,5.96-5.96,5.96c-13.316,0-26.632,0-39.948,0v41.264
	c13.316,0,26.631,0,39.948,0c3.233,0,5.96,2.727,5.96,5.96c0,3.221-2.739,5.96-5.96,5.96c-13.316,0-26.632,0-39.948,0v41.263
	c13.316,0,26.631,0,39.948,0c3.233,0,5.96,2.728,5.96,5.96c0,3.221-2.739,5.96-5.96,5.96c-13.316,0-26.632,0-39.948,0v41.263
	c20.787,0,41.576,0,62.363,0c7.683,0,7.671,11.921,0,11.921c-20.788,0-41.576,0-62.363,0v41.264c13.316,0,26.631,0,39.948,0
	c3.233,0,5.96,2.727,5.96,5.96c0,3.221-2.739,5.96-5.96,5.96c-13.316,0-26.632,0-39.948,0v41.263c13.316,0,26.631,0,39.948,0
	c3.233,0,5.96,2.728,5.96,5.96c0,3.221-2.739,5.96-5.96,5.96c-13.316,0-26.632,0-39.948,0v41.263c13.316,0,26.631,0,39.948,0
	c3.233,0,5.96,2.728,5.96,5.96c0,3.221-2.739,5.96-5.96,5.96c-13.316,0-26.632,0-39.948,0v41.263h0.001V960.963z"/>
<path style="fill:#EA4F51;" d="M1002.367,976.762c20.787,0,41.574,0,62.362,0c7.683,0,7.671,11.921,0,11.921
	c-20.788,0-41.575,0-62.362,0v30.233c0.967,3.678,1.928,7.358,2.911,11.03c12.345,0,24.69,0,37.035,0c3.233,0,5.96,2.727,5.96,5.96
	c0,3.22-2.739,5.96-5.96,5.96c-11.296,0-22.593,0-33.889,0c0.323,1.183,0.615,2.378,0.94,3.561
	c2.029,7.383,4.099,14.775,6.205,22.17c0.773,2.715,1.57,5.431,2.358,8.147c0.71,2.461,1.428,4.924,2.147,7.385
	c7.413,0,14.825,0,22.239,0c3.233,0,5.96,2.728,5.96,5.96c0,3.221-2.739,5.961-5.96,5.961c-6.241,0-12.484,0-18.726,0
	c4.097,13.745,8.336,27.49,12.727,41.224l0.013,0.039c1.995,0,3.99,0,5.985,0c3.233,0,5.96,2.728,5.96,5.96
	c0,3.221-2.739,5.961-5.96,5.961c-0.708,0-1.416,0-2.124,0l0.357,1.092c4.391,13.416,8.923,26.81,13.621,40.17
	c3.52,0,7.04,0,10.561,0c7.683,0,7.671,11.921,0,11.921c-2.106,0-4.212,0-6.318,0c2.691,7.49,5.437,14.966,8.232,22.427
	c1.389,3.71,2.771,7.421,4.186,11.123c0.867,2.267,1.752,4.527,2.629,6.791c1.039,2.682,2.094,5.358,3.148,8.035
	c2.202,5.597,4.436,11.181,6.7,16.757c0.473,1.166,0.949,2.332,1.426,3.497c53.543-24.774,134.995,7.277,191.871,78.841
	c63.025,79.301,71.994,177.065,20.033,218.362c-8.653,6.877-18.469,11.71-29.081,14.697c25.317,29.908,52.578,58.193,82.066,84.423
	c21.702-43.515,33.98-92.519,33.98-144.36c0-139.902-89.156-263.648-221.847-307.926l-46.189-15.414v-237.71h-0.001h-113.197
	V976.762z"/>
<path style="fill:#F18B9B;" d="M1257.3,1400.973c-34.154-34.155-77.225-46.461-96.2-27.486
	c-10.092,10.092-11.283,27.008-5.093,45.764c0.958,1.717,1.93,3.425,2.897,5.138c-0.937-1.66-1.907-3.299-2.836-4.966
	c4.414,13.287,12.536,27.473,23.888,40.838c-0.586-0.954-1.144-1.925-1.726-2.882c0.64,1.052,1.296,2.094,1.941,3.144l0.776,0.943
	l-0.176,0.03l-0.052,0.009c-4.574,0.488-8.544,2.106-11.497,5.06c-5.607,5.606-6.593,14.772-3.653,25.059
	c1.47,5.144,3.92,10.567,7.265,15.967c3.345,5.399,7.583,10.774,12.629,15.82c17.253,17.253,38.326,25.026,51.093,19.928
	l0.073-0.026c2.139-0.865,4.07-2.05,5.68-3.661c7.655-7.654,6.682-21.944-1.118-36.662c17.888,5.393,33.894,3.886,43.597-5.816
	C1303.761,1478.199,1291.456,1435.129,1257.3,1400.973z"/>
<path style="fill:#9BBAE3;" d="M1349.621,1666.374c-53.236,106.743-163.493,180.275-290.658,180.275h-0.001h0
	c-179.006,0-324.638-145.63-324.638-324.636c0-139.902,89.156-263.648,221.852-307.926l41.459-13.835
	c-3.804-2.997-2.608-10.754,3.583-10.754h1.148v-41.262h-1.148c-3.233,0-5.961-2.728-5.961-5.961c0-3.22,2.74-5.96,5.961-5.96h1.148
	v-41.263h-1.148c-3.233,0-5.961-2.728-5.961-5.961c0-3.22,2.74-5.96,5.961-5.96h1.148v-41.263h-1.148
	c-3.233,0-5.961-2.728-5.961-5.96c0-3.221,2.74-5.96,5.961-5.96h1.148v-10.639c0.935,3.552,1.905,7.09,2.85,10.639h0.062
	c-0.983-3.672-1.944-7.352-2.911-11.03v-30.233h-0.001v30.228c-31.637-120.334-54.668-244.04-67.583-368.915v499.983
	c-155.729,51.962-268.04,198.835-268.04,372.034c0,216.617,175.604,392.22,392.221,392.22c6.028,0,12.01-0.185,17.972-0.454
	c1.567-0.071,3.13-0.156,4.692-0.244c5.285-0.301,10.546-0.691,15.774-1.199c0.703-0.068,1.414-0.112,2.116-0.185
	c5.81-0.597,11.573-1.351,17.305-2.199c1.507-0.222,3.006-0.469,4.507-0.709c4.784-0.764,9.54-1.61,14.263-2.546
	c1.101-0.219,2.211-0.411,3.309-0.638c5.571-1.154,11.092-2.438,16.574-3.825c1.405-0.356,2.799-0.741,4.199-1.112
	c4.442-1.178,8.854-2.429,13.233-3.758c1.329-0.403,2.668-0.787,3.991-1.204c5.304-1.67,10.56-3.446,15.763-5.333
	c1.283-0.466,2.549-0.965,3.826-1.443c4.172-1.563,8.308-3.194,12.412-4.895c1.473-0.609,2.951-1.209,4.415-1.838
	c5.009-2.147,9.975-4.376,14.874-6.724c1.113-0.533,2.204-1.103,3.311-1.647c3.975-1.951,7.912-3.967,11.81-6.048
	c1.547-0.826,3.094-1.652,4.629-2.498c4.694-2.587,9.348-5.234,13.922-8.005c0.854-0.517,1.684-1.068,2.534-1.593
	c3.875-2.389,7.703-4.846,11.487-7.364c1.563-1.041,3.12-2.091,4.667-3.153c3.679-2.523,7.312-5.105,10.899-7.75
	c1.092-0.805,2.194-1.596,3.278-2.412c3.948-2.975,7.822-6.039,11.652-9.157c1.532-1.248,3.048-2.514,4.561-3.783
	c3.029-2.544,6.015-5.135,8.965-7.766c1.205-1.075,2.433-2.123,3.625-3.213c3.759-3.438,7.436-6.964,11.06-10.544
	c1.447-1.43,2.868-2.887,4.293-4.339c2.577-2.627,5.114-5.291,7.617-7.989c1.305-1.407,2.627-2.795,3.911-4.22
	c3.363-3.733,6.651-7.534,9.87-11.395c1.312-1.573,2.588-3.178,3.875-4.771c2.232-2.763,4.426-5.555,6.583-8.378
	c1.277-1.671,2.564-3.334,3.815-5.026c2.968-4.015,5.869-8.082,8.684-12.212c1.123-1.647,2.197-3.328,3.295-4.993
	c1.959-2.969,3.881-5.96,5.761-8.985c1.161-1.867,2.32-3.734,3.45-5.622c2.573-4.301,5.09-8.639,7.5-13.045
	c-2.214-1.632-4.438-3.249-6.634-4.913C1380.331,1692.778,1364.723,1679.809,1349.621,1666.374z"/>
<path style="fill:#B71E1D;" d="M1267.556,1581.95l-0.072,0.019c-53.103,14.9-126.543-17.465-179.049-83.53
	c-63.025-79.301-71.994-177.065-20.034-218.362c5.063-4.023,10.527-7.341,16.307-10.017l0.024-0.01
	c-0.476-1.165-0.953-2.331-1.426-3.498c-2.265-5.575-4.499-11.159-6.7-16.756c-1.054-2.678-2.109-5.353-3.148-8.035
	c-0.877-2.264-1.762-4.524-2.629-6.791c-1.415-3.702-2.797-7.413-4.187-11.123c-2.795-7.461-5.541-14.937-8.232-22.427
	c-19.065,0-38.129,0-57.193,0c-1.483,0-2.672-0.451-3.582-1.167l-41.458,13.835c-132.696,44.278-221.852,168.024-221.852,307.926
	c0,179.006,145.632,324.636,324.637,324.636h0.001c127.165,0,237.422-73.532,290.657-180.275v-0.001
	C1320.134,1640.142,1292.872,1611.858,1267.556,1581.95z"/>
<path style="fill:#B71E1D;" d="M1002.367,1041.867v41.263c5.899,0,11.798,0,17.697,0c-0.719-2.462-1.422-4.923-2.137-7.385
	c-0.788-2.716-1.584-5.432-2.358-8.147l-0.245-0.846c-2.023-7.113-4.01-14.222-5.96-21.324c-0.325-1.183-0.632-2.376-0.954-3.561
	C1006.396,1041.867,1004.381,1041.867,1002.367,1041.867z"/>
<path style="fill:#B71E1D;" d="M1002.367,1029.947c0.95,0,1.899,0,2.849,0c-0.945-3.547-1.914-7.083-2.849-10.634V1029.947z"/>
<path style="fill:#B71E1D;" d="M1002.367,1136.315c11.32,0,22.64,0,33.961,0l-0.013-0.039c-4.391-13.734-8.63-27.479-12.727-41.224
	c-7.073,0-14.147,0-21.22,0V1136.315z"/>
<path style="fill:#B71E1D;" d="M1002.367,1148.236v41.262c17.267,0,34.534,0,51.801,0c-4.698-13.361-9.23-26.755-13.621-40.17
	l-0.37-1.092C1027.573,1148.236,1014.97,1148.236,1002.367,1148.236z"/>
<path style="fill:#ED6F79;" d="M1276.603,1348.891c-56.875-71.564-138.328-103.615-191.871-78.841l-0.024,0.01
	c-5.779,2.677-11.244,5.994-16.307,10.017c-51.961,41.297-42.991,139.061,20.034,218.362c52.505,66.065,125.946,98.43,179.049,83.53
	l0.072-0.019c10.611-2.987,20.428-7.82,29.081-14.697C1348.597,1525.956,1339.628,1428.192,1276.603,1348.891z M1284.787,1497.174
	c-9.703,9.702-25.708,11.209-43.597,5.816c7.8,14.718,8.772,29.008,1.118,36.662c-1.609,1.611-3.541,2.795-5.68,3.661l-0.073,0.026
	c-12.766,5.098-33.84-2.675-51.092-19.928c-5.045-5.045-9.284-10.421-12.629-15.82c-3.346-5.4-5.796-10.823-7.265-15.967
	c-2.94-10.287-1.954-19.453,3.653-25.059c2.953-2.954,6.923-4.572,11.497-5.06c0.882,1.435,1.806,2.841,2.695,4.271l-0.154-0.249
	c-0.833-1.342-1.661-2.686-2.489-4.031l0.176-0.03l-0.776-0.943c-0.645-1.05-1.301-2.092-1.941-3.144
	c0.582,0.957,1.14,1.928,1.726,2.882c-11.352-13.365-19.474-27.55-23.889-40.838c0.93,1.666,1.9,3.305,2.837,4.966
	c-0.967-1.713-1.938-3.421-2.897-5.138c-6.19-18.756-4.999-35.672,5.093-45.764c18.975-18.975,62.046-6.669,96.2,27.486
	C1291.456,1435.129,1303.762,1478.199,1284.787,1497.174z"/>
<path d="M1064.729,338.555c-20.788,0-41.576,0-62.363,0h-1.148c-7.671,0-7.684,11.921,0,11.921h1.148c20.787,0,41.576,0,62.363,0
	C1072.399,350.475,1072.411,338.555,1064.729,338.555z"/>
<path d="M1048.273,397.699c0-3.232-2.728-5.96-5.96-5.96c-13.316,0-26.632,0-39.948,0h-1.148c-3.221,0-5.961,2.74-5.961,5.96
	c0,3.233,2.728,5.96,5.961,5.96h1.148c13.316,0,26.631,0,39.948,0C1045.534,403.659,1048.273,400.921,1048.273,397.699z"/>
<path d="M1048.273,450.883c0-3.233-2.728-5.96-5.96-5.96c-13.316,0-26.632,0-39.948,0h-1.148c-3.221,0-5.961,2.739-5.961,5.96
	c0,3.232,2.728,5.96,5.961,5.96h1.148c13.316,0,26.631,0,39.948,0C1045.534,456.844,1048.273,454.104,1048.273,450.883z"/>
<path d="M1048.273,504.067c0-3.232-2.728-5.96-5.96-5.96c-13.316,0-26.632,0-39.948,0h-1.148c-3.221,0-5.961,2.74-5.961,5.96
	c0,3.233,2.728,5.96,5.961,5.96h1.148c13.316,0,26.631,0,39.948,0C1045.534,510.027,1048.273,507.288,1048.273,504.067z"/>
<path d="M1064.729,551.29c-20.788,0-41.576,0-62.363,0h-1.148c-7.671,0-7.684,11.921,0,11.921h1.148c20.787,0,41.576,0,62.363,0
	C1072.399,563.211,1072.411,551.29,1064.729,551.29z"/>
<path d="M1048.273,610.435c0-3.233-2.728-5.96-5.96-5.96c-13.316,0-26.632,0-39.948,0h-1.148c-3.221,0-5.961,2.739-5.961,5.96
	c0,3.233,2.728,5.96,5.961,5.96h1.148c13.316,0,26.631,0,39.948,0C1045.534,616.395,1048.273,613.657,1048.273,610.435z"/>
<path d="M1048.273,663.619c0-3.233-2.728-5.96-5.96-5.96c-13.316,0-26.632,0-39.948,0h-1.148c-3.221,0-5.961,2.739-5.961,5.96
	c0,3.232,2.728,5.96,5.961,5.96h1.148c13.316,0,26.631,0,39.948,0C1045.534,669.58,1048.273,666.84,1048.273,663.619z"/>
<path d="M1048.273,716.803c0-3.233-2.728-5.96-5.96-5.96c-13.316,0-26.632,0-39.948,0h-1.148c-3.221,0-5.961,2.74-5.961,5.96
	c0,3.233,2.728,5.96,5.961,5.96h1.148c13.316,0,26.631,0,39.948,0C1045.534,722.763,1048.273,720.024,1048.273,716.803z"/>
<path d="M1064.729,764.026c-20.788,0-41.576,0-62.363,0h-1.148c-7.671,0-7.684,11.921,0,11.921h1.148c20.787,0,41.576,0,62.363,0
	C1072.399,775.947,1072.411,764.026,1064.729,764.026z"/>
<path d="M1048.273,823.171c0-3.233-2.728-5.96-5.96-5.96c-13.316,0-26.632,0-39.948,0h-1.148c-3.221,0-5.961,2.739-5.961,5.96
	c0,3.232,2.728,5.96,5.961,5.96h1.148c13.316,0,26.631,0,39.948,0C1045.534,829.131,1048.273,826.393,1048.273,823.171z"/>
<path d="M1048.273,876.355c0-3.233-2.728-5.96-5.96-5.96c-13.316,0-26.632,0-39.948,0h-1.148c-3.221,0-5.961,2.74-5.961,5.96
	c0,3.233,2.728,5.96,5.961,5.96h1.148c13.316,0,26.631,0,39.948,0C1045.534,882.315,1048.273,879.576,1048.273,876.355z"/>
<path d="M1048.273,929.539c0-3.232-2.728-5.96-5.96-5.96c-13.316,0-26.632,0-39.948,0h-1.148c-3.221,0-5.961,2.74-5.961,5.96
	c0,3.233,2.728,5.96,5.961,5.96h1.148c13.316,0,26.631,0,39.948,0C1045.534,935.499,1048.273,932.76,1048.273,929.539z"/>
<path d="M1064.729,988.683c7.671,0,7.683-11.921,0-11.921c-20.788,0-41.575,0-62.362,0h-0.001h-1.148
	c-7.671,0-7.684,11.921,0,11.921h1.148h0.001C1023.153,988.683,1043.941,988.683,1064.729,988.683z"/>
<path d="M1008.41,1041.867h0.014c11.296,0,22.593,0,33.889,0c3.221,0,5.96-2.74,5.96-5.96c0-3.233-2.728-5.96-5.96-5.96
	c-12.345,0-24.69,0-37.035,0h-0.062c-0.949,0-1.899,0-2.849,0h-0.001h-1.148c-3.221,0-5.961,2.74-5.961,5.96
	c0,3.232,2.728,5.96,5.961,5.96h1.148h0.001C1004.381,1041.867,1006.396,1041.867,1008.41,1041.867z"/>
<path d="M1023.587,1095.051c6.242,0,12.485,0,18.726,0c3.221,0,5.96-2.739,5.96-5.961c0-3.232-2.728-5.96-5.96-5.96
	c-7.414,0-14.826,0-22.239,0h-0.01c-5.9,0-11.798,0-17.697,0h-0.001h-1.148c-3.221,0-5.961,2.74-5.961,5.96
	c0,3.233,2.728,5.961,5.961,5.961h1.148h0.001C1009.44,1095.051,1016.514,1095.051,1023.587,1095.051z"/>
<path d="M1040.177,1148.236h0.012c0.707,0,1.415,0,2.124,0c3.221,0,5.96-2.74,5.96-5.961c0-3.233-2.728-5.96-5.96-5.96
	c-1.995,0-3.99,0-5.985,0h0c-11.321,0-22.641,0-33.961,0h-0.001h-1.148c-3.221,0-5.961,2.74-5.961,5.96
	c0,3.233,2.728,5.961,5.961,5.961h1.148h0.001C1014.97,1148.236,1027.573,1148.236,1040.177,1148.236z"/>
<path d="M1001.218,1201.42c19.064,0,38.128,0,57.193,0c2.105,0,4.211,0,6.318,0c7.671,0,7.683-11.921,0-11.921
	c-3.521,0-7.041,0-10.561,0c-17.267,0-34.534,0-51.801,0h-0.001h-1.148c-6.19,0-7.386,7.757-3.583,10.754h0
	C998.545,1200.969,999.734,1201.42,1001.218,1201.42z"/>
</svg>
